# AST/ASF file generated using VICON BodyLanguage
# -----------------------------------------------
:version 1.10
:name VICON
:units
  mass 1.0
  length 0.45
  angle deg
:documentation
   .ast/.asf automatically generated from VICON data using
   VICON BodyBuilder and BodyLanguage model FoxedUp or BRILLIANT.MOD
:root
   order TX TY TZ RX RY RZ
   axis XYZ
   position 0 0 0  
   orientation 0 0 0 
:bonedata
  begin
     id 1 
     name lhipjoint
     direction 0.690799 -0.707083 0.151096 
     length 2.54797 
     axis 0 0 0  XYZ
  end
  begin
     id 2 
     name lfemur
     direction 0.34202 -0.939693 0  
     length 7.21646  
     axis 0 0 20  XYZ
    dof rx ry rz
    limits (-160.0 20.0)
           (-70.0 70.0)
           (-60.0 70.0)
  end
  begin
     id 3 
     name ltibia
     direction 0.34202 -0.939693 0   
     length 8.16759   
     axis 0 0 20   XYZ
    dof rx
    limits (-10.0 170.0)
  end
  begin
     id 4 
     name lfoot
     direction 0.0487203 -0.133858 0.989802   
     length 1.93375   
     axis -90 7.62852e-016 20   XYZ
    dof rx rz
    limits (-45.0 90.0)
           (-70.0 20.0)
  end
  begin
     id 5 
     name ltoes
     direction 1.53453e-011 -4.21783e-011 1   
     length 0.979747   
     axis -90 7.62852e-016 20   XYZ
    dof rx
    limits (-90.0 20.0)
  end
  begin
     id 6 
     name rhipjoint
     direction -0.694693 -0.703425 0.150315   
     length 2.56122  
     axis 0 0 0  XYZ 
  end
  begin
     id 7 
     name rfemur
     direction -0.34202 -0.939693 0   
     length 7.36786   
     axis 0 0 -20   XYZ
    dof rx ry rz
    limits (-160.0 20.0)
           (-70.0 70.0)
           (-70.0 60.0)
  end
  begin
     id 8 
     name rtibia
     direction -0.34202 -0.939693 0   
     length 8.07288   
     axis 0 0 -20   XYZ
    dof rx
    limits (-10.0 170.0)
 end
 begin
     id 9 
     name rfoot
     direction -0.0428397 -0.117701 0.992125   
     length 1.88295  
     axis -90 -7.62852e-016 -20   XYZ
    dof rx rz
    limits (-45.0 90.0)
           (-20.0 70.0)
  end
  begin
     id 10 
     name rtoes
     direction -1.53456e-011 -4.2187e-011 1   
     length 0.955578   
     axis -90 -7.62852e-016 -20   XYZ
    dof rx
    limits (-90.0 20.0)
  end
  begin
     id 11 
     name lowerback
     direction 0.0288145 0.999398 -0.0193241   
     length 1.92149   
     axis 0 0 0   XYZ
    dof rx ry rz
    limits (-20.0 45.0)
           (-30.0 30.0)
           (-30.0 30.0)
  end
  begin
     id 12 
     name upperback
     direction 0.0233784 0.998099 0.0570278   
     length 1.90435   
     axis 0 0 0   XYZ
    dof rx ry rz
    limits (-20.0 45.0)
           (-30.0 30.0)
           (-30.0 30.0)
  end
  begin
     id 13 
     name thorax
     direction 0.0096694 0.997833 0.0650817   
     length 1.9111   
     axis 0 0 0   XYZ
    dof rx ry rz
    limits (-20.0 45.0)
           (-30.0 30.0)
           (-30.0 30.0)
  end
  begin
     id 14 
     name lowerneck
     direction 0.00516803 0.999916 0.0118722   
     length 1.74664   
     axis 0 0 0   XYZ
    dof rx ry rz
    limits (-20.0 45.0)
           (-30.0 30.0)
           (-30.0 30.0)
  end
  begin
     id 15 
     name upperneck
     direction -0.0510851 0.996117 -0.071696   
     length 1.68498   
     axis 0 0 0   XYZ
    dof rx ry rz
    limits (-20.0 45.0)
           (-30.0 30.0)
           (-30.0 30.0)
  end
  begin
     id 16
     name head
     direction -0.019188 0.999436 -0.0275702  
     length 1.83483  
     axis 0 0 0   XYZ
    dof rx ry rz
    limits (-20.0 45.0)
           (-30.0 30.0)
           (-30.0 30.0)
  end
  begin
     id 17 
     name lclavicle
     direction 0.967006 0.248456 -0.0562957  
     length 3.39395  
     axis 0 0 0   XYZ
    dof ry rz
    limits (-20.0 10.0)
           (0.0 20.0)
  end
  begin
     id 18 
     name lhumerus
     direction 1 -4.48962e-011 -5.62711e-019   
     length 5.24318   
     axis 180 -30 -90   XYZ
    dof rx ry rz
    limits (-60.0 90.0)
           (-90.0 90.0)
           (-90.0 90.0)
  end
  begin
     id 19
     name lradius
     direction 1 -4.48966e-011 7.90625e-027   
     length 2.98999   
     axis 180 -30 -90   XYZ
    dof rx
    limits (-10.0 170.0)
  end
  begin
     id 20
     name lwrist
     direction 1 -4.48959e-011 1.61068e-026   
     length 1.49499   
     axis -9.31229e-015 90 90   XYZ
    dof ry
    limits (-180.0 0.0)
 end
  begin
     id 21 
     name lhand
     direction 1 -4.49017e-011 3.22136e-026   
     length 0.726745   
     axis -2.0555e-014 90 90   XYZ
    dof rx rz
    limits (-90.0 90.0)
           (-45.0 45.0)
  end
  begin
     id 22 
     name lfingers
     direction 1 -4.4898e-011 6.44272e-026   
     length 0.58592   
     axis -4.11101e-014 90 90   XYZ
    dof rx
    limits (0.0 90.0)
  end
  begin
     id 23
     name lthumb
     direction 0.707107 -6.34922e-011 0.707107   
     length 0.841268   
     axis -90 45 2.85299e-015   XYZ
    dof rx rz
    limits (-45.0 45.0)
           (-45.0 45.0)
  end
  begin
     id 24 
     name rclavicle
     direction -0.972232 0.230238 0.0419005   
     length 3.40416  
     axis 0 0 0   XYZ 
    dof ry rz
    limits (-10.0 20.0)
           (-20.0 0.0)
  end
  begin
     id 25 
     name rhumerus
     direction -1 -4.48976e-011 2.48487e-027  
     length 5.37045   
     axis 180 30 90   XYZ
    dof rx ry rz
    limits (-90.0 60.0)
           (-90.0 90.0)
           (-90.0 90.0)
  end
  begin
     id 26 
     name rradius
     direction -1 -4.48942e-011 7.87951e-027   
     length 2.92792   
     axis 180 30 90   XYZ
    dof rx
    limits (-10.0 170.0)
  end
  begin
     id 27 
     name rwrist
     direction -1 -4.48969e-011 1.61068e-026   
     length 1.46396   
     axis -9.31229e-015 -90 -90   XYZ
    dof ry
    limits (-180.0 0.0)
  end
  begin
     id 28
     name rhand
     direction -1 -4.49043e-011 3.22136e-026   
     length 0.784497   
     axis -2.0555e-014 -90 -90   XYZ
    dof rx rz
    limits (-90.0 90.0)
           (-45.0 45.0)
  end
  begin
     id 29
     name rfingers
     direction -1 -4.48823e-011 6.44272e-026   
     length 0.632482   
     axis -4.11101e-014 -90 -90   XYZ
    dof rx
    limits (0.0 90.0)
  end
  begin
     id 30
     name rthumb
     direction -0.707107 -6.34923e-011 0.707107   
     length 0.908121   
     axis -90 -45 -2.85299e-015   XYZ
    dof rx rz
    limits (-45.0 45.0)
           (-45.0 45.0)
  end
:hierarchy
  begin
    root lhipjoint rhipjoint lowerback
    lhipjoint lfemur
    lfemur ltibia
    ltibia lfoot
    lfoot ltoes
    rhipjoint rfemur
    rfemur rtibia
    rtibia rfoot
    rfoot rtoes
    lowerback upperback
    upperback thorax
    thorax lowerneck lclavicle rclavicle
    lowerneck upperneck
    upperneck head
    lclavicle lhumerus
    lhumerus lradius
    lradius lwrist
    lwrist lhand lthumb
    lhand lfingers
    rclavicle rhumerus
    rhumerus rradius
    rradius rwrist
    rwrist rhand rthumb
    rhand rfingers
  end

#!OML:ASF E:\Style6\Style6.ASF
:FULLY-SPECIFIED
:DEGREES
1966
root 0.598014 15.7768 -1.90326 23.7536 3.30334 2.01
lowerback 30.3262 -2.42275 8.58464
upperback 4.84808 0.312928 5.31363
thorax -10.3968 -0.0759989 0.943548
lowerneck -7.60835 -0.766133 3.04445
upperneck -16.471 -2.60937 -11.3013
head -3.80965 -1.06389 -3.98434
rclavicle 2.8625e-014 3.18055e-015
rhumerus 55.5039 1.07931 -38.3456
rradius 61.6798
rwrist -3.23269
rhand -9.52158 -6.96106
rfingers 7.12502
rthumb 16.4443 -36.2841
lclavicle 2.8625e-014 3.18055e-015
lhumerus -40.7546 -18.5811 73.3374
lradius 109.458
lwrist 20.735
lhand -32.5287 37.5739
lfingers 7.12502
lthumb -5.75922 67.4756
rfemur -68.6692 -18.0785 25.3717
rtibia 66.566
rfoot -15.4125 2.2047
rtoes -5.46495
lfemur -67.5421 7.26288 -27.833
ltibia 64.8015
lfoot -15.8315 -4.10645
ltoes -9.22837
1967
root 0.577092 15.7704 -1.90524 23.266 3.26326 1.32044
lowerback 30.6562 -2.35633 8.76891
upperback 4.85603 0.497948 5.3428
thorax -10.5141 -0.00212753 0.81826
lowerneck -7.50401 -0.870817 2.87997
upperneck -16.0052 -2.64301 -10.8175
head -3.68621 -1.09939 -3.79686
rclavicle 6.36111e-015 4.13472e-014
rhumerus 54.7809 1.1227 -39.342
rradius 62.2827
rwrist -2.07842
rhand -8.86665 -6.26785
rfingers 7.12502
rthumb 17.0748 -35.5375
lclavicle 6.36111e-015 4.13472e-014
lhumerus -40.1665 -19.0496 72.9186
lradius 109.369
lwrist 20.7712
lhand -32.3899 37.2275
lfingers 7.12502
lthumb -5.6252 67.1329
rfemur -68.0695 -17.6493 25.9208
rtibia 66.5425
rfoot -15.551 2.08394
rtoes -5.88253
lfemur -67.326 7.76009 -27.0684
ltibia 65.1113
lfoot -16.0284 -4.00366
ltoes -10.4441
1968
root 0.557278 15.7665 -1.90579 22.9014 3.01106 0.942076
lowerback 30.9219 -2.16184 8.61628
upperback 4.8299 0.722997 5.30361
thorax -10.6508 0.0988919 0.77916
lowerneck -7.39385 -0.988617 2.6987
upperneck -15.4666 -2.69319 -10.3572
head -3.54245 -1.14234 -3.61462
rclavicle -4.77083e-015 -3.18055e-014
rhumerus 54.0316 1.12446 -40.3129
rradius 62.7358
rwrist -0.93852
rhand -8.50892 -5.59468
rfingers 7.12502
rthumb 17.4191 -34.8342
lclavicle -4.77083e-015 -3.18055e-014
lhumerus -39.5056 -19.6004 72.5712
lradius 109.313
lwrist 21.0344
lhand -32.1013 36.9001
lfingers 7.12502
lthumb -5.34655 66.8126
rfemur -67.6354 -17.2302 26.1304
rtibia 66.5562
rfoot -15.6142 2.13141
rtoes -5.1404
lfemur -67.1247 8.26571 -26.69
ltibia 65.3862
lfoot -16.2308 -3.99889
ltoes -10.4081
1969
root 0.543695 15.7564 -1.90713 22.76 2.92886 0.945525
lowerback 30.9368 -2.05179 8.39534
upperback 4.77225 0.779414 5.16094
thorax -10.7243 0.127585 0.722276
lowerneck -7.40806 -1.08391 2.6158
upperneck -14.8941 -2.71835 -9.90981
head -3.36732 -1.18126 -3.45599
rclavicle -2.22639e-014 3.02153e-014
rhumerus 53.2459 1.08774 -41.3113
rradius 63.1474
rwrist 0.36949
rhand -8.61211 -4.84174
rfingers 7.12502
rthumb 17.3198 -34.09
lclavicle -2.22639e-014 3.02153e-014
lhumerus -38.7452 -20.2219 72.1787
lradius 109.271
lwrist 21.4302
lhand -31.6272 36.4539
lfingers 7.12502
lthumb -4.88872 66.3775
rfemur -67.5373 -17.1052 26.0455
rtibia 66.6801
rfoot -15.6762 2.24754
rtoes -3.81793
lfemur -67.091 8.40262 -26.6892
ltibia 65.6004
lfoot -16.3476 -3.91019
ltoes -10.7283
1970
root 0.534846 15.7419 -1.91017 22.6672 3.03182 0.970223
lowerback 30.8489 -2.05114 8.31181
upperback 4.72908 0.731086 5.03228
thorax -10.7374 0.106885 0.645236
lowerneck -7.65537 -1.15311 2.43098
upperneck -13.9266 -2.64128 -9.1868
head -3.41948 -1.20949 -3.52204
rclavicle 0 1.90833e-014
rhumerus 52.4694 1.06856 -42.2875
rradius 63.6712
rwrist 1.78924
rhand -8.95288 -3.94452
rfingers 7.12502
rthumb 16.9918 -33.2213
lclavicle 0 1.90833e-014
lhumerus -37.9492 -20.785 71.7342
lradius 109.248
lwrist 21.7592
lhand -31.3484 36.1894
lfingers 7.12502
lthumb -4.61959 66.119
rfemur -67.5359 -17.115 26.005
rtibia 66.8794
rfoot -15.8259 2.11135
rtoes -4.38436
lfemur -67.1117 8.30657 -26.6237
ltibia 65.7943
lfoot -16.3937 -3.86054
ltoes -10.7832
1971
root 0.526042 15.7274 -1.91109 22.5734 3.10687 1.1235
lowerback 30.7094 -2.04054 8.11558
upperback 4.71362 0.648985 4.88929
thorax -10.7029 0.07641 0.623153
lowerneck -7.65622 -1.22593 2.31363
upperneck -13.4449 -2.66277 -8.84497
head -3.23847 -1.23273 -3.36736
rclavicle -3.81667e-014 -4.77083e-014
rhumerus 51.7591 0.979747 -43.349
rradius 64.163
rwrist 3.35723
rhand -8.96441 -2.90981
rfingers 7.12502
rthumb 16.9807 -32.1876
lclavicle -3.81667e-014 -4.77083e-014
lhumerus -37.0896 -21.3005 71.2831
lradius 109.137
lwrist 21.8455
lhand -31.1931 36.112
lfingers 7.12502
lthumb -4.4696 66.0448
rfemur -67.5572 -17.1516 25.8208
rtibia 67.1446
rfoot -15.9656 1.88378
rtoes -5.87668
lfemur -67.0724 8.16617 -26.682
ltibia 65.9652
lfoot -16.4518 -3.87408
ltoes -10.0349
1972
root 0.51677 15.7102 -1.91212 22.4966 3.19645 1.24494
lowerback 30.5415 -2.04396 7.99516
upperback 4.6867 0.56993 4.73278
thorax -10.6659 0.0444622 0.545525
lowerneck -7.56068 -1.32535 2.2944
upperneck -13.015 -2.73861 -8.56968
head -3.1019 -1.28276 -3.2575
rclavicle -3.18055e-015 0
rhumerus 51.0131 0.844127 -44.5892
rradius 64.6102
rwrist 4.76409
rhand -8.91489 -1.72149
rfingers 7.12502
rthumb 17.0284 -30.9951
lclavicle -3.18055e-015 0
lhumerus -36.2219 -21.7812 70.8524
lradius 109.026
lwrist 21.9648
lhand -31.1984 36.1548
lfingers 7.12502
lthumb -4.47474 66.0875
rfemur -67.5804 -17.1423 25.6403
rtibia 67.4239
rfoot -16.1023 1.81842
rtoes -5.6377
lfemur -67.085 8.0356 -26.7155
ltibia 66.1571
lfoot -16.5503 -3.79632
ltoes -9.85562
1973
root 0.508125 15.6919 -1.91452 22.4171 3.2844 1.29525
lowerback 30.4112 -2.06383 7.9268
upperback 4.6512 0.494634 4.59715
thorax -10.6529 0.0116248 0.462281
lowerneck -7.47594 -1.41318 2.22667
upperneck -12.5891 -2.79542 -8.2635
head -2.96271 -1.32145 -3.12916
rclavicle -3.18055e-015 1.43125e-014
rhumerus 50.2248 0.74851 -46.0039
rradius 65.0128
rwrist 5.75705
rhand -9.31474 -0.272312
rfingers 7.12502
rthumb 16.6435 -29.5787
lclavicle -3.18055e-015 1.43125e-014
lhumerus -35.4553 -22.1627 70.4254
lradius 109.07
lwrist 22.2187
lhand -31.0975 36.2339
lfingers 7.12502
lthumb -4.37725 66.1687
rfemur -67.6277 -17.1328 25.5599
rtibia 67.7301
rfoot -16.3021 1.65239
rtoes -6.4896
lfemur -67.1369 7.94569 -26.6998
ltibia 66.3772
lfoot -16.6338 -3.69475
ltoes -9.92742
1974
root 0.498507 15.6705 -1.91718 22.4384 3.38515 1.28485
lowerback 30.1857 -2.0467 7.91099
upperback 4.59623 0.476192 4.48435
thorax -10.618 0.00336679 0.353603
lowerneck -7.39105 -1.52101 2.12972
upperneck -12.1812 -2.87932 -7.93756
head -2.83127 -1.37208 -2.99021
rclavicle 2.22639e-014 1.90833e-014
rhumerus 49.3403 0.566099 -47.3763
rradius 65.48
rwrist 6.53356
rhand -9.89894 1.36308
rfingers 7.12502
rthumb 16.081 -27.9897
lclavicle 2.22639e-014 1.90833e-014
lhumerus -34.638 -22.593 70.0562
lradius 109.073
lwrist 22.4663
lhand -30.9191 36.2901
lfingers 7.12502
lthumb -4.20498 66.2284
rfemur -67.812 -17.0618 25.5725
rtibia 68.0647
rfoot -16.5235 1.38461
rtoes -7.8478
lfemur -67.3284 7.86695 -26.6309
ltibia 66.6229
lfoot -16.6671 -3.63288
ltoes -9.93227
1975
root 0.49405 15.6388 -1.91953 22.71 3.55852 1.43288
lowerback 29.4578 -2.02288 7.85213
upperback 4.90255 0.386484 4.3546
thorax -10.7108 -0.0133106 0.296719
lowerneck -7.31551 -1.64045 2.03259
upperneck -11.754 -2.98569 -7.68215
head -2.69549 -1.43278 -2.87721
rclavicle 3.18055e-015 -1.59028e-015
rhumerus 48.4718 0.286849 -48.6453
rradius 66.0613
rwrist 7.30239
rhand -10.0908 2.9717
rfingers 7.12502
rthumb 15.8962 -26.3959
lclavicle 3.18055e-015 -1.59028e-015
lhumerus -33.7839 -23.0657 69.7694
lradius 109.048
lwrist 22.7375
lhand -30.803 36.278
lfingers 7.12502
lthumb -4.0929 66.2185
rfemur -68.3407 -17.0795 25.4906
rtibia 68.4486
rfoot -16.5998 1.33912
rtoes -7.08273
lfemur -67.8007 7.58234 -26.7297
ltibia 66.8663
lfoot -16.6785 -3.45706
ltoes -10.3272
